<?xml version="1.0" standalone="no"?>
<!DOCTYPE svg PUBLIC "-//W3C//DTD SVG 20010904//EN"
 "http://www.w3.org/TR/2001/REC-SVG-20010904/DTD/svg10.dtd">
<svg version="1.0" xmlns="http://www.w3.org/2000/svg"
 width="233.000000pt" height="217.000000pt" viewBox="0 0 233.000000 217.000000"
 preserveAspectRatio="xMidYMid meet">

<g transform="translate(0.000000,217.000000) scale(0.100000,-0.100000)"
fill="#000000" stroke="none">
<path d="M1547 2114 c7 -19 45 -15 51 6 5 13 3 13 -13 0 -14 -11 -19 -12 -22
-2 -3 6 -9 12 -14 12 -4 0 -6 -7 -2 -16z"/>
<path d="M1358 2083 c-15 -4 -18 -16 -18 -74 0 -55 3 -69 15 -69 8 0 14 3 14
8 -6 36 38 46 59 12 7 -11 17 -20 23 -20 7 0 5 9 -4 24 -14 21 -14 26 -2 36
22 18 18 57 -7 74 -22 16 -46 18 -80 9z m63 -23 c26 -15 24 -38 -5 -52 -33
-14 -56 -4 -56 25 0 38 22 48 61 27z"/>
<path d="M1520 2065 c-17 -21 -4 -51 30 -65 30 -12 39 -33 20 -45 -6 -4 -24 0
-40 9 -16 8 -32 10 -35 6 -6 -10 46 -40 69 -40 19 0 46 27 46 46 0 8 -16 24
-35 35 -54 32 -39 68 16 39 15 -8 19 -7 19 4 0 27 -69 36 -90 11z"/>
<path d="M1187 2063 c-13 -3 -17 -11 -14 -26 3 -12 9 -43 12 -69 5 -31 12 -48
21 -48 8 0 13 9 11 22 -1 18 4 24 23 26 14 2 31 9 38 14 15 13 16 60 0 76 -12
12 -56 14 -91 5z m81 -40 c3 -17 -4 -26 -24 -33 -29 -11 -44 -1 -44 31 0 23
11 30 40 27 17 -2 26 -10 28 -25z"/>
<path d="M1675 2048 c-28 -91 -28 -89 -8 -117 25 -32 72 -40 94 -14 9 10 21
37 27 59 14 50 15 54 3 54 -5 0 -17 -22 -26 -50 -19 -57 -27 -64 -62 -55 -24
6 -25 9 -20 48 3 23 9 52 13 65 4 14 2 22 -5 22 -6 0 -13 -6 -16 -12z"/>
<path d="M1010 2012 c0 -21 43 -132 51 -132 5 0 9 6 9 14 0 23 -42 126 -51
126 -5 0 -9 -4 -9 -8z"/>
<path d="M936 1978 c-9 -12 -16 -26 -16 -30 0 -3 -5 -19 -11 -35 l-10 -28 -18
40 c-9 22 -20 35 -24 28 -9 -15 43 -133 60 -133 10 0 11 5 3 19 -10 19 -4 51
9 51 3 0 20 -9 37 -19 17 -10 36 -16 43 -12 7 5 -4 16 -29 30 -42 24 -46 33
-30 77 14 35 6 41 -14 12z"/>
<path d="M1850 1994 c0 -4 8 -12 17 -19 16 -12 15 -16 -10 -63 -31 -56 -32
-62 -14 -62 6 0 23 23 36 51 21 44 27 50 47 45 36 -9 28 6 -16 32 -39 22 -60
28 -60 16z"/>
<path d="M742 1894 c-16 -11 -22 -24 -20 -42 3 -25 7 -27 50 -27 25 0 49 -3
54 -7 12 -12 -17 -38 -42 -38 -13 0 -24 -4 -24 -10 0 -18 56 -11 74 9 10 11
16 30 14 43 -3 20 -8 23 -50 23 -26 0 -48 3 -48 8 0 4 0 11 0 16 0 5 11 12 25
15 14 4 25 11 25 16 0 15 -33 12 -58 -6z"/>
<path d="M603 1799 c-18 -12 -33 -25 -33 -30 0 -17 82 -119 91 -113 5 3 4 14
-2 25 -16 30 5 51 37 38 31 -11 44 -12 44 0 0 5 -9 11 -20 14 -13 3 -20 14
-20 30 0 26 -28 57 -51 57 -8 0 -29 -10 -46 -21z m66 -13 c14 -17 7 -38 -18
-53 -16 -10 -22 -8 -37 8 -16 18 -16 20 1 39 21 23 38 25 54 6z"/>
<path d="M2000 1794 c0 -9 7 -14 17 -12 25 5 28 28 4 28 -12 0 -21 -6 -21 -16z"/>
<path d="M465 1675 c-32 -31 -33 -74 -2 -103 69 -65 171 37 107 106 -28 30
-74 29 -105 -3z m87 -12 c22 -20 23 -51 1 -75 -20 -22 -42 -23 -71 -2 -27 19
-28 48 -2 74 24 24 47 25 72 3z"/>
<path d="M2139 1610 c58 -107 83 -203 88 -335 4 -105 1 -132 -21 -220 -107
-417 -510 -796 -976 -918 -102 -26 -132 -30 -260 -30 -120 0 -160 3 -230 22
-156 42 -300 121 -430 238 l-65 58 55 -64 c118 -139 294 -246 475 -292 127
-32 330 -32 465 0 473 114 881 483 1002 906 31 107 33 337 4 430 -20 66 -85
196 -117 235 -13 16 -9 5 10 -30z"/>
<path d="M1568 1573 c-49 -51 -72 -148 -108 -437 -12 -92 -30 -202 -40 -243
-49 -191 -164 -315 -339 -367 -141 -42 -302 6 -420 124 -58 58 -50 35 15 -46
126 -157 391 -204 571 -102 89 50 174 162 212 279 6 20 18 94 25 165 10 97 21
149 45 210 32 84 105 197 160 248 36 35 48 84 31 127 -29 70 -106 91 -152 42z"/>
<path d="M350 1550 c-49 -49 -26 -122 40 -128 58 -6 106 60 69 94 -21 19 -40
11 -21 -8 16 -16 15 -34 -4 -52 -39 -40 -105 4 -85 56 5 14 17 28 25 31 18 7
22 27 6 27 -5 0 -19 -9 -30 -20z"/>
<path d="M1496 1488 c-28 -43 -47 -99 -82 -245 -19 -79 -46 -170 -61 -201 -66
-139 -252 -253 -381 -232 l-34 5 51 18 c82 29 123 103 107 191 -15 78 -121
143 -188 115 -65 -27 -80 -109 -29 -160 34 -34 63 -37 91 -9 33 33 21 78 -28
104 -24 14 -25 15 -6 16 34 0 74 -47 74 -87 0 -50 -37 -83 -92 -83 -48 0 -84
20 -120 65 -48 61 -23 179 54 252 75 73 162 79 242 18 75 -57 116 -70 180 -55
56 12 99 58 121 129 7 23 6 23 -31 16 -21 -3 -53 -20 -71 -35 -46 -41 -84 -45
-189 -20 -124 30 -208 25 -295 -17 -82 -41 -135 -91 -168 -162 -23 -49 -26
-69 -26 -161 0 -96 3 -110 29 -165 38 -77 114 -150 196 -189 56 -26 77 -31
145 -31 112 0 189 30 270 107 106 98 142 197 190 508 15 95 37 208 49 251 13
44 22 79 20 79 -2 0 -10 -10 -18 -22z"/>
<path d="M240 1390 c-31 -31 -36 -68 -13 -98 27 -37 77 -41 109 -11 32 30 33
91 2 113 -31 22 -74 20 -98 -4z m84 -16 c33 -32 10 -94 -35 -94 -23 0 -59 34
-59 55 0 21 36 55 59 55 11 0 27 -7 35 -16z"/>
<path d="M156 1241 c-4 -5 14 -17 39 -27 25 -9 45 -20 45 -24 0 -4 -27 -13
-59 -20 -78 -16 -83 -33 -18 -58 29 -11 60 -23 70 -27 10 -4 17 -3 17 5 0 6
-18 19 -40 27 -22 9 -40 19 -40 22 0 4 26 13 58 21 34 9 57 20 57 28 0 8 -27
25 -59 38 -69 28 -63 27 -70 15z"/>
<path d="M84 1025 c-26 -63 -22 -70 56 -87 57 -12 70 -12 70 -1 0 7 -6 13 -14
13 -36 0 -28 47 9 56 13 3 26 12 29 20 6 17 1 17 -24 4 -15 -8 -24 -6 -40 10
-32 32 -68 26 -86 -15z m74 -19 c4 -36 -6 -46 -40 -39 -24 5 -27 9 -22 32 10
38 14 42 37 39 16 -2 23 -11 25 -32z"/>
<path d="M66 874 c-12 -31 -6 -74 14 -94 57 -57 144 15 114 94 -12 30 -22 16
-17 -23 5 -34 2 -41 -20 -56 -31 -20 -63 -12 -73 18 -9 25 -9 24 1 55 7 25 -9
31 -19 6z"/>
<path d="M157 644 c-14 -14 -7 -35 11 -32 9 2 17 10 17 17 0 16 -18 25 -28 15z"/>
</g>
</svg>
